<?xml version="1.0" encoding="utf-8" standalone="no"?>
<!DOCTYPE svg PUBLIC "-//W3C//DTD SVG 1.1//EN"
  "http://www.w3.org/Graphics/SVG/1.1/DTD/svg11.dtd">
<svg xmlns:xlink="http://www.w3.org/1999/xlink" width="720pt" height="360pt" viewBox="0 0 720 360" xmlns="http://www.w3.org/2000/svg" version="1.1">
 <metadata>
  <rdf:RDF xmlns:dc="http://purl.org/dc/elements/1.1/" xmlns:cc="http://creativecommons.org/ns#" xmlns:rdf="http://www.w3.org/1999/02/22-rdf-syntax-ns#">
   <cc:Work>
    <dc:type rdf:resource="http://purl.org/dc/dcmitype/StillImage"/>
    <dc:date>2023-11-06T15:47:05.870032</dc:date>
    <dc:format>image/svg+xml</dc:format>
    <dc:creator>
     <cc:Agent>
      <dc:title>Matplotlib v3.7.1, https://matplotlib.org/</dc:title>
     </cc:Agent>
    </dc:creator>
   </cc:Work>
  </rdf:RDF>
 </metadata>
 <defs>
  <style type="text/css">*{stroke-linejoin: round; stroke-linecap: butt}</style>
 </defs>
 <g id="figure_1">
  <g id="patch_1">
   <path d="M 0 360 
L 720 360 
L 720 0 
L 0 0 
z
" style="fill: #ffffff"/>
  </g>
  <g id="axes_1">
   <g id="patch_2">
    <path d="M 90 315 
L 648 315 
L 648 43.2 
L 90 43.2 
z
" style="fill: #ffffff"/>
   </g>
   <g id="patch_3">
    <path d="M 115.363636 315 
L 123.352183 315 
L 123.352183 59.530577 
L 115.363636 59.530577 
z
" clip-path="url(#pc9a2602203)" style="fill: #800000"/>
   </g>
   <g id="patch_4">
    <path d="M 135.335004 315 
L 143.32355 315 
L 143.32355 60.46954 
L 135.335004 60.46954 
z
" clip-path="url(#pc9a2602203)" style="fill: #800000"/>
   </g>
   <g id="patch_5">
    <path d="M 155.306371 315 
L 163.294918 315 
L 163.294918 58.887156 
L 155.306371 58.887156 
z
" clip-path="url(#pc9a2602203)" style="fill: #800000"/>
   </g>
   <g id="patch_6">
    <path d="M 175.277738 315 
L 183.266285 315 
L 183.266285 61.344995 
L 175.277738 61.344995 
z
" clip-path="url(#pc9a2602203)" style="fill: #800000"/>
   </g>
   <g id="patch_7">
    <path d="M 195.249105 315 
L 203.237652 315 
L 203.237652 66.657223 
L 195.249105 66.657223 
z
" clip-path="url(#pc9a2602203)" style="fill: #800000"/>
   </g>
   <g id="patch_8">
    <path d="M 215.220472 315 
L 223.209019 315 
L 223.209019 59.316654 
L 215.220472 59.316654 
z
" clip-path="url(#pc9a2602203)" style="fill: #800000"/>
   </g>
   <g id="patch_9">
    <path d="M 235.19184 315 
L 243.180387 315 
L 243.180387 60.735938 
L 235.19184 60.735938 
z
" clip-path="url(#pc9a2602203)" style="fill: #800000"/>
   </g>
   <g id="patch_10">
    <path d="M 255.163207 315 
L 263.151754 315 
L 263.151754 58.703856 
L 255.163207 58.703856 
z
" clip-path="url(#pc9a2602203)" style="fill: #800000"/>
   </g>
   <g id="patch_11">
    <path d="M 275.134574 315 
L 283.123121 315 
L 283.123121 56.142857 
L 275.134574 56.142857 
z
" clip-path="url(#pc9a2602203)" style="fill: #800000"/>
   </g>
   <g id="patch_12">
    <path d="M 295.105941 315 
L 303.094488 315 
L 303.094488 62.324204 
L 295.105941 62.324204 
z
" clip-path="url(#pc9a2602203)" style="fill: #800000"/>
   </g>
   <g id="patch_13">
    <path d="M 315.077309 315 
L 323.065855 315 
L 323.065855 60.182754 
L 315.077309 60.182754 
z
" clip-path="url(#pc9a2602203)" style="fill: #800000"/>
   </g>
   <g id="patch_14">
    <path d="M 335.048676 315 
L 343.037223 315 
L 343.037223 62.86541 
L 335.048676 62.86541 
z
" clip-path="url(#pc9a2602203)" style="fill: #800000"/>
   </g>
   <g id="patch_15">
    <path d="M 355.020043 315 
L 363.00859 315 
L 363.00859 59.567062 
L 355.020043 59.567062 
z
" clip-path="url(#pc9a2602203)" style="fill: #800000"/>
   </g>
   <g id="patch_16">
    <path d="M 374.99141 315 
L 382.979957 315 
L 382.979957 62.288678 
L 374.99141 62.288678 
z
" clip-path="url(#pc9a2602203)" style="fill: #800000"/>
   </g>
   <g id="patch_17">
    <path d="M 394.962777 315 
L 402.951324 315 
L 402.951324 59.277093 
L 394.962777 59.277093 
z
" clip-path="url(#pc9a2602203)" style="fill: #800000"/>
   </g>
   <g id="patch_18">
    <path d="M 414.934145 315 
L 422.922691 315 
L 422.922691 57.593872 
L 414.934145 57.593872 
z
" clip-path="url(#pc9a2602203)" style="fill: #800000"/>
   </g>
   <g id="patch_19">
    <path d="M 434.905512 315 
L 442.894059 315 
L 442.894059 57.197282 
L 434.905512 57.197282 
z
" clip-path="url(#pc9a2602203)" style="fill: #800000"/>
   </g>
   <g id="patch_20">
    <path d="M 454.876879 315 
L 462.865426 315 
L 462.865426 61.137006 
L 454.876879 61.137006 
z
" clip-path="url(#pc9a2602203)" style="fill: #800000"/>
   </g>
   <g id="patch_21">
    <path d="M 474.848246 315 
L 482.836793 315 
L 482.836793 60.575306 
L 474.848246 60.575306 
z
" clip-path="url(#pc9a2602203)" style="fill: #800000"/>
   </g>
   <g id="patch_22">
    <path d="M 494.819613 315 
L 502.80816 315 
L 502.80816 57.724101 
L 494.819613 57.724101 
z
" clip-path="url(#pc9a2602203)" style="fill: #800000"/>
   </g>
   <g id="patch_23">
    <path d="M 514.790981 315 
L 522.779528 315 
L 522.779528 61.839252 
L 514.790981 61.839252 
z
" clip-path="url(#pc9a2602203)" style="fill: #800000"/>
   </g>
   <g id="patch_24">
    <path d="M 534.762348 315 
L 542.750895 315 
L 542.750895 59.899827 
L 534.762348 59.899827 
z
" clip-path="url(#pc9a2602203)" style="fill: #800000"/>
   </g>
   <g id="patch_25">
    <path d="M 554.733715 315 
L 562.722262 315 
L 562.722262 56.590275 
L 554.733715 56.590275 
z
" clip-path="url(#pc9a2602203)" style="fill: #800000"/>
   </g>
   <g id="patch_26">
    <path d="M 574.705082 315 
L 582.693629 315 
L 582.693629 59.324585 
L 574.705082 59.324585 
z
" clip-path="url(#pc9a2602203)" style="fill: #800000"/>
   </g>
   <g id="patch_27">
    <path d="M 594.67645 315 
L 602.664996 315 
L 602.664996 60.035797 
L 594.67645 60.035797 
z
" clip-path="url(#pc9a2602203)" style="fill: #800000"/>
   </g>
   <g id="patch_28">
    <path d="M 614.647817 315 
L 622.636364 315 
L 622.636364 59.87897 
L 614.647817 59.87897 
z
" clip-path="url(#pc9a2602203)" style="fill: #800000"/>
   </g>
   <g id="matplotlib.axis_1">
    <g id="xtick_1">
     <g id="line2d_1">
      <defs>
       <path id="m8d9823c835" d="M 0 0 
L 0 3.5 
" style="stroke: #000000; stroke-width: 0.8"/>
      </defs>
      <g>
       <use xlink:href="#m8d9823c835" x="119.35791" y="315" style="stroke: #000000; stroke-width: 0.8"/>
      </g>
     </g>
     <g id="text_1">
      <!-- Antelope Valley -->
      <g transform="translate(80.53291 329.598437) scale(0.1 -0.1)">
       <defs>
        <path id="DejaVuSans-41" d="M 2188 4044 
L 1331 1722 
L 3047 1722 
L 2188 4044 
z
M 1831 4666 
L 2547 4666 
L 4325 0 
L 3669 0 
L 3244 1197 
L 1141 1197 
L 716 0 
L 50 0 
L 1831 4666 
z
" transform="scale(0.015625)"/>
        <path id="DejaVuSans-6e" d="M 3513 2113 
L 3513 0 
L 2938 0 
L 2938 2094 
Q 2938 2591 2744 2837 
Q 2550 3084 2163 3084 
Q 1697 3084 1428 2787 
Q 1159 2491 1159 1978 
L 1159 0 
L 581 0 
L 581 3500 
L 1159 3500 
L 1159 2956 
Q 1366 3272 1645 3428 
Q 1925 3584 2291 3584 
Q 2894 3584 3203 3211 
Q 3513 2838 3513 2113 
z
" transform="scale(0.015625)"/>
        <path id="DejaVuSans-74" d="M 1172 4494 
L 1172 3500 
L 2356 3500 
L 2356 3053 
L 1172 3053 
L 1172 1153 
Q 1172 725 1289 603 
Q 1406 481 1766 481 
L 2356 481 
L 2356 0 
L 1766 0 
Q 1100 0 847 248 
Q 594 497 594 1153 
L 594 3053 
L 172 3053 
L 172 3500 
L 594 3500 
L 594 4494 
L 1172 4494 
z
" transform="scale(0.015625)"/>
        <path id="DejaVuSans-65" d="M 3597 1894 
L 3597 1613 
L 953 1613 
Q 991 1019 1311 708 
Q 1631 397 2203 397 
Q 2534 397 2845 478 
Q 3156 559 3463 722 
L 3463 178 
Q 3153 47 2828 -22 
Q 2503 -91 2169 -91 
Q 1331 -91 842 396 
Q 353 884 353 1716 
Q 353 2575 817 3079 
Q 1281 3584 2069 3584 
Q 2775 3584 3186 3129 
Q 3597 2675 3597 1894 
z
M 3022 2063 
Q 3016 2534 2758 2815 
Q 2500 3097 2075 3097 
Q 1594 3097 1305 2825 
Q 1016 2553 972 2059 
L 3022 2063 
z
" transform="scale(0.015625)"/>
        <path id="DejaVuSans-6c" d="M 603 4863 
L 1178 4863 
L 1178 0 
L 603 0 
L 603 4863 
z
" transform="scale(0.015625)"/>
        <path id="DejaVuSans-6f" d="M 1959 3097 
Q 1497 3097 1228 2736 
Q 959 2375 959 1747 
Q 959 1119 1226 758 
Q 1494 397 1959 397 
Q 2419 397 2687 759 
Q 2956 1122 2956 1747 
Q 2956 2369 2687 2733 
Q 2419 3097 1959 3097 
z
M 1959 3584 
Q 2709 3584 3137 3096 
Q 3566 2609 3566 1747 
Q 3566 888 3137 398 
Q 2709 -91 1959 -91 
Q 1206 -91 779 398 
Q 353 888 353 1747 
Q 353 2609 779 3096 
Q 1206 3584 1959 3584 
z
" transform="scale(0.015625)"/>
        <path id="DejaVuSans-70" d="M 1159 525 
L 1159 -1331 
L 581 -1331 
L 581 3500 
L 1159 3500 
L 1159 2969 
Q 1341 3281 1617 3432 
Q 1894 3584 2278 3584 
Q 2916 3584 3314 3078 
Q 3713 2572 3713 1747 
Q 3713 922 3314 415 
Q 2916 -91 2278 -91 
Q 1894 -91 1617 61 
Q 1341 213 1159 525 
z
M 3116 1747 
Q 3116 2381 2855 2742 
Q 2594 3103 2138 3103 
Q 1681 3103 1420 2742 
Q 1159 2381 1159 1747 
Q 1159 1113 1420 752 
Q 1681 391 2138 391 
Q 2594 391 2855 752 
Q 3116 1113 3116 1747 
z
" transform="scale(0.015625)"/>
        <path id="DejaVuSans-20" transform="scale(0.015625)"/>
        <path id="DejaVuSans-56" d="M 1831 0 
L 50 4666 
L 709 4666 
L 2188 738 
L 3669 4666 
L 4325 4666 
L 2547 0 
L 1831 0 
z
" transform="scale(0.015625)"/>
        <path id="DejaVuSans-61" d="M 2194 1759 
Q 1497 1759 1228 1600 
Q 959 1441 959 1056 
Q 959 750 1161 570 
Q 1363 391 1709 391 
Q 2188 391 2477 730 
Q 2766 1069 2766 1631 
L 2766 1759 
L 2194 1759 
z
M 3341 1997 
L 3341 0 
L 2766 0 
L 2766 531 
Q 2569 213 2275 61 
Q 1981 -91 1556 -91 
Q 1019 -91 701 211 
Q 384 513 384 1019 
Q 384 1609 779 1909 
Q 1175 2209 1959 2209 
L 2766 2209 
L 2766 2266 
Q 2766 2663 2505 2880 
Q 2244 3097 1772 3097 
Q 1472 3097 1187 3025 
Q 903 2953 641 2809 
L 641 3341 
Q 956 3463 1253 3523 
Q 1550 3584 1831 3584 
Q 2591 3584 2966 3190 
Q 3341 2797 3341 1997 
z
" transform="scale(0.015625)"/>
        <path id="DejaVuSans-79" d="M 2059 -325 
Q 1816 -950 1584 -1140 
Q 1353 -1331 966 -1331 
L 506 -1331 
L 506 -850 
L 844 -850 
Q 1081 -850 1212 -737 
Q 1344 -625 1503 -206 
L 1606 56 
L 191 3500 
L 800 3500 
L 1894 763 
L 2988 3500 
L 3597 3500 
L 2059 -325 
z
" transform="scale(0.015625)"/>
       </defs>
       <use xlink:href="#DejaVuSans-41"/>
       <use xlink:href="#DejaVuSans-6e" x="68.408203"/>
       <use xlink:href="#DejaVuSans-74" x="131.787109"/>
       <use xlink:href="#DejaVuSans-65" x="170.996094"/>
       <use xlink:href="#DejaVuSans-6c" x="232.519531"/>
       <use xlink:href="#DejaVuSans-6f" x="260.302734"/>
       <use xlink:href="#DejaVuSans-70" x="321.484375"/>
       <use xlink:href="#DejaVuSans-65" x="384.960938"/>
       <use xlink:href="#DejaVuSans-20" x="446.484375"/>
       <use xlink:href="#DejaVuSans-56" x="478.271484"/>
       <use xlink:href="#DejaVuSans-61" x="538.929688"/>
       <use xlink:href="#DejaVuSans-6c" x="600.208984"/>
       <use xlink:href="#DejaVuSans-6c" x="627.992188"/>
       <use xlink:href="#DejaVuSans-65" x="655.775391"/>
       <use xlink:href="#DejaVuSans-79" x="717.298828"/>
      </g>
     </g>
    </g>
    <g id="xtick_2">
     <g id="line2d_2">
      <g>
       <use xlink:href="#m8d9823c835" x="139.329277" y="315" style="stroke: #000000; stroke-width: 0.8"/>
      </g>
     </g>
     <g id="text_2">
      <!-- East Valley -->
      <g transform="translate(112.040996 329.598437) scale(0.1 -0.1)">
       <defs>
        <path id="DejaVuSans-45" d="M 628 4666 
L 3578 4666 
L 3578 4134 
L 1259 4134 
L 1259 2753 
L 3481 2753 
L 3481 2222 
L 1259 2222 
L 1259 531 
L 3634 531 
L 3634 0 
L 628 0 
L 628 4666 
z
" transform="scale(0.015625)"/>
        <path id="DejaVuSans-73" d="M 2834 3397 
L 2834 2853 
Q 2591 2978 2328 3040 
Q 2066 3103 1784 3103 
Q 1356 3103 1142 2972 
Q 928 2841 928 2578 
Q 928 2378 1081 2264 
Q 1234 2150 1697 2047 
L 1894 2003 
Q 2506 1872 2764 1633 
Q 3022 1394 3022 966 
Q 3022 478 2636 193 
Q 2250 -91 1575 -91 
Q 1294 -91 989 -36 
Q 684 19 347 128 
L 347 722 
Q 666 556 975 473 
Q 1284 391 1588 391 
Q 1994 391 2212 530 
Q 2431 669 2431 922 
Q 2431 1156 2273 1281 
Q 2116 1406 1581 1522 
L 1381 1569 
Q 847 1681 609 1914 
Q 372 2147 372 2553 
Q 372 3047 722 3315 
Q 1072 3584 1716 3584 
Q 2034 3584 2315 3537 
Q 2597 3491 2834 3397 
z
" transform="scale(0.015625)"/>
       </defs>
       <use xlink:href="#DejaVuSans-45"/>
       <use xlink:href="#DejaVuSans-61" x="63.183594"/>
       <use xlink:href="#DejaVuSans-73" x="124.462891"/>
       <use xlink:href="#DejaVuSans-74" x="176.5625"/>
       <use xlink:href="#DejaVuSans-20" x="215.771484"/>
       <use xlink:href="#DejaVuSans-56" x="247.558594"/>
       <use xlink:href="#DejaVuSans-61" x="308.216797"/>
       <use xlink:href="#DejaVuSans-6c" x="369.496094"/>
       <use xlink:href="#DejaVuSans-6c" x="397.279297"/>
       <use xlink:href="#DejaVuSans-65" x="425.0625"/>
       <use xlink:href="#DejaVuSans-79" x="486.585938"/>
      </g>
     </g>
    </g>
    <g id="xtick_3">
     <g id="line2d_3">
      <g>
       <use xlink:href="#m8d9823c835" x="159.300644" y="315" style="stroke: #000000; stroke-width: 0.8"/>
      </g>
     </g>
     <g id="text_3">
      <!-- Glendale -->
      <g transform="translate(137.088144 329.598437) scale(0.1 -0.1)">
       <defs>
        <path id="DejaVuSans-47" d="M 3809 666 
L 3809 1919 
L 2778 1919 
L 2778 2438 
L 4434 2438 
L 4434 434 
Q 4069 175 3628 42 
Q 3188 -91 2688 -91 
Q 1594 -91 976 548 
Q 359 1188 359 2328 
Q 359 3472 976 4111 
Q 1594 4750 2688 4750 
Q 3144 4750 3555 4637 
Q 3966 4525 4313 4306 
L 4313 3634 
Q 3963 3931 3569 4081 
Q 3175 4231 2741 4231 
Q 1884 4231 1454 3753 
Q 1025 3275 1025 2328 
Q 1025 1384 1454 906 
Q 1884 428 2741 428 
Q 3075 428 3337 486 
Q 3600 544 3809 666 
z
" transform="scale(0.015625)"/>
        <path id="DejaVuSans-64" d="M 2906 2969 
L 2906 4863 
L 3481 4863 
L 3481 0 
L 2906 0 
L 2906 525 
Q 2725 213 2448 61 
Q 2172 -91 1784 -91 
Q 1150 -91 751 415 
Q 353 922 353 1747 
Q 353 2572 751 3078 
Q 1150 3584 1784 3584 
Q 2172 3584 2448 3432 
Q 2725 3281 2906 2969 
z
M 947 1747 
Q 947 1113 1208 752 
Q 1469 391 1925 391 
Q 2381 391 2643 752 
Q 2906 1113 2906 1747 
Q 2906 2381 2643 2742 
Q 2381 3103 1925 3103 
Q 1469 3103 1208 2742 
Q 947 2381 947 1747 
z
" transform="scale(0.015625)"/>
       </defs>
       <use xlink:href="#DejaVuSans-47"/>
       <use xlink:href="#DejaVuSans-6c" x="77.490234"/>
       <use xlink:href="#DejaVuSans-65" x="105.273438"/>
       <use xlink:href="#DejaVuSans-6e" x="166.796875"/>
       <use xlink:href="#DejaVuSans-64" x="230.175781"/>
       <use xlink:href="#DejaVuSans-61" x="293.652344"/>
       <use xlink:href="#DejaVuSans-6c" x="354.931641"/>
       <use xlink:href="#DejaVuSans-65" x="382.714844"/>
      </g>
     </g>
    </g>
    <g id="xtick_4">
     <g id="line2d_4">
      <g>
       <use xlink:href="#m8d9823c835" x="179.272011" y="315" style="stroke: #000000; stroke-width: 0.8"/>
      </g>
     </g>
     <g id="text_4">
      <!-- San Fernando -->
      <g transform="translate(144.995449 329.598437) scale(0.1 -0.1)">
       <defs>
        <path id="DejaVuSans-53" d="M 3425 4513 
L 3425 3897 
Q 3066 4069 2747 4153 
Q 2428 4238 2131 4238 
Q 1616 4238 1336 4038 
Q 1056 3838 1056 3469 
Q 1056 3159 1242 3001 
Q 1428 2844 1947 2747 
L 2328 2669 
Q 3034 2534 3370 2195 
Q 3706 1856 3706 1288 
Q 3706 609 3251 259 
Q 2797 -91 1919 -91 
Q 1588 -91 1214 -16 
Q 841 59 441 206 
L 441 856 
Q 825 641 1194 531 
Q 1563 422 1919 422 
Q 2459 422 2753 634 
Q 3047 847 3047 1241 
Q 3047 1584 2836 1778 
Q 2625 1972 2144 2069 
L 1759 2144 
Q 1053 2284 737 2584 
Q 422 2884 422 3419 
Q 422 4038 858 4394 
Q 1294 4750 2059 4750 
Q 2388 4750 2728 4690 
Q 3069 4631 3425 4513 
z
" transform="scale(0.015625)"/>
        <path id="DejaVuSans-46" d="M 628 4666 
L 3309 4666 
L 3309 4134 
L 1259 4134 
L 1259 2759 
L 3109 2759 
L 3109 2228 
L 1259 2228 
L 1259 0 
L 628 0 
L 628 4666 
z
" transform="scale(0.015625)"/>
        <path id="DejaVuSans-72" d="M 2631 2963 
Q 2534 3019 2420 3045 
Q 2306 3072 2169 3072 
Q 1681 3072 1420 2755 
Q 1159 2438 1159 1844 
L 1159 0 
L 581 0 
L 581 3500 
L 1159 3500 
L 1159 2956 
Q 1341 3275 1631 3429 
Q 1922 3584 2338 3584 
Q 2397 3584 2469 3576 
Q 2541 3569 2628 3553 
L 2631 2963 
z
" transform="scale(0.015625)"/>
       </defs>
       <use xlink:href="#DejaVuSans-53"/>
       <use xlink:href="#DejaVuSans-61" x="63.476562"/>
       <use xlink:href="#DejaVuSans-6e" x="124.755859"/>
       <use xlink:href="#DejaVuSans-20" x="188.134766"/>
       <use xlink:href="#DejaVuSans-46" x="219.921875"/>
       <use xlink:href="#DejaVuSans-65" x="271.941406"/>
       <use xlink:href="#DejaVuSans-72" x="333.464844"/>
       <use xlink:href="#DejaVuSans-6e" x="372.828125"/>
       <use xlink:href="#DejaVuSans-61" x="436.207031"/>
       <use xlink:href="#DejaVuSans-6e" x="497.486328"/>
       <use xlink:href="#DejaVuSans-64" x="560.865234"/>
       <use xlink:href="#DejaVuSans-6f" x="624.341797"/>
      </g>
     </g>
    </g>
    <g id="xtick_5">
     <g id="line2d_5">
      <g>
       <use xlink:href="#m8d9823c835" x="199.243379" y="315" style="stroke: #000000; stroke-width: 0.8"/>
      </g>
     </g>
     <g id="text_5">
      <!-- West Valley -->
      <g transform="translate(170.451972 329.598437) scale(0.1 -0.1)">
       <defs>
        <path id="DejaVuSans-57" d="M 213 4666 
L 850 4666 
L 1831 722 
L 2809 4666 
L 3519 4666 
L 4500 722 
L 5478 4666 
L 6119 4666 
L 4947 0 
L 4153 0 
L 3169 4050 
L 2175 0 
L 1381 0 
L 213 4666 
z
" transform="scale(0.015625)"/>
       </defs>
       <use xlink:href="#DejaVuSans-57"/>
       <use xlink:href="#DejaVuSans-65" x="93.001953"/>
       <use xlink:href="#DejaVuSans-73" x="154.525391"/>
       <use xlink:href="#DejaVuSans-74" x="206.625"/>
       <use xlink:href="#DejaVuSans-20" x="245.833984"/>
       <use xlink:href="#DejaVuSans-56" x="277.621094"/>
       <use xlink:href="#DejaVuSans-61" x="338.279297"/>
       <use xlink:href="#DejaVuSans-6c" x="399.558594"/>
       <use xlink:href="#DejaVuSans-6c" x="427.341797"/>
       <use xlink:href="#DejaVuSans-65" x="455.125"/>
       <use xlink:href="#DejaVuSans-79" x="516.648438"/>
      </g>
     </g>
    </g>
    <g id="xtick_6">
     <g id="line2d_6">
      <g>
       <use xlink:href="#m8d9823c835" x="219.214746" y="315" style="stroke: #000000; stroke-width: 0.8"/>
      </g>
     </g>
     <g id="text_6">
      <!-- Alhambra -->
      <g transform="translate(195.008496 329.598437) scale(0.1 -0.1)">
       <defs>
        <path id="DejaVuSans-68" d="M 3513 2113 
L 3513 0 
L 2938 0 
L 2938 2094 
Q 2938 2591 2744 2837 
Q 2550 3084 2163 3084 
Q 1697 3084 1428 2787 
Q 1159 2491 1159 1978 
L 1159 0 
L 581 0 
L 581 4863 
L 1159 4863 
L 1159 2956 
Q 1366 3272 1645 3428 
Q 1925 3584 2291 3584 
Q 2894 3584 3203 3211 
Q 3513 2838 3513 2113 
z
" transform="scale(0.015625)"/>
        <path id="DejaVuSans-6d" d="M 3328 2828 
Q 3544 3216 3844 3400 
Q 4144 3584 4550 3584 
Q 5097 3584 5394 3201 
Q 5691 2819 5691 2113 
L 5691 0 
L 5113 0 
L 5113 2094 
Q 5113 2597 4934 2840 
Q 4756 3084 4391 3084 
Q 3944 3084 3684 2787 
Q 3425 2491 3425 1978 
L 3425 0 
L 2847 0 
L 2847 2094 
Q 2847 2600 2669 2842 
Q 2491 3084 2119 3084 
Q 1678 3084 1418 2786 
Q 1159 2488 1159 1978 
L 1159 0 
L 581 0 
L 581 3500 
L 1159 3500 
L 1159 2956 
Q 1356 3278 1631 3431 
Q 1906 3584 2284 3584 
Q 2666 3584 2933 3390 
Q 3200 3197 3328 2828 
z
" transform="scale(0.015625)"/>
        <path id="DejaVuSans-62" d="M 3116 1747 
Q 3116 2381 2855 2742 
Q 2594 3103 2138 3103 
Q 1681 3103 1420 2742 
Q 1159 2381 1159 1747 
Q 1159 1113 1420 752 
Q 1681 391 2138 391 
Q 2594 391 2855 752 
Q 3116 1113 3116 1747 
z
M 1159 2969 
Q 1341 3281 1617 3432 
Q 1894 3584 2278 3584 
Q 2916 3584 3314 3078 
Q 3713 2572 3713 1747 
Q 3713 922 3314 415 
Q 2916 -91 2278 -91 
Q 1894 -91 1617 61 
Q 1341 213 1159 525 
L 1159 0 
L 581 0 
L 581 4863 
L 1159 4863 
L 1159 2969 
z
" transform="scale(0.015625)"/>
       </defs>
       <use xlink:href="#DejaVuSans-41"/>
       <use xlink:href="#DejaVuSans-6c" x="68.408203"/>
       <use xlink:href="#DejaVuSans-68" x="96.191406"/>
       <use xlink:href="#DejaVuSans-61" x="159.570312"/>
       <use xlink:href="#DejaVuSans-6d" x="220.849609"/>
       <use xlink:href="#DejaVuSans-62" x="318.261719"/>
       <use xlink:href="#DejaVuSans-72" x="381.738281"/>
       <use xlink:href="#DejaVuSans-61" x="422.851562"/>
      </g>
     </g>
    </g>
    <g id="xtick_7">
     <g id="line2d_7">
      <g>
       <use xlink:href="#m8d9823c835" x="239.186113" y="315" style="stroke: #000000; stroke-width: 0.8"/>
      </g>
     </g>
     <g id="text_7">
      <!-- El Monte -->
      <g transform="translate(217.469707 329.598437) scale(0.1 -0.1)">
       <defs>
        <path id="DejaVuSans-4d" d="M 628 4666 
L 1569 4666 
L 2759 1491 
L 3956 4666 
L 4897 4666 
L 4897 0 
L 4281 0 
L 4281 4097 
L 3078 897 
L 2444 897 
L 1241 4097 
L 1241 0 
L 628 0 
L 628 4666 
z
" transform="scale(0.015625)"/>
       </defs>
       <use xlink:href="#DejaVuSans-45"/>
       <use xlink:href="#DejaVuSans-6c" x="63.183594"/>
       <use xlink:href="#DejaVuSans-20" x="90.966797"/>
       <use xlink:href="#DejaVuSans-4d" x="122.753906"/>
       <use xlink:href="#DejaVuSans-6f" x="209.033203"/>
       <use xlink:href="#DejaVuSans-6e" x="270.214844"/>
       <use xlink:href="#DejaVuSans-74" x="333.59375"/>
       <use xlink:href="#DejaVuSans-65" x="372.802734"/>
      </g>
     </g>
    </g>
    <g id="xtick_8">
     <g id="line2d_8">
      <g>
       <use xlink:href="#m8d9823c835" x="259.15748" y="315" style="stroke: #000000; stroke-width: 0.8"/>
      </g>
     </g>
     <g id="text_8">
      <!-- Foothill -->
      <g transform="translate(241.048105 329.598437) scale(0.1 -0.1)">
       <defs>
        <path id="DejaVuSans-69" d="M 603 3500 
L 1178 3500 
L 1178 0 
L 603 0 
L 603 3500 
z
M 603 4863 
L 1178 4863 
L 1178 4134 
L 603 4134 
L 603 4863 
z
" transform="scale(0.015625)"/>
       </defs>
       <use xlink:href="#DejaVuSans-46"/>
       <use xlink:href="#DejaVuSans-6f" x="53.894531"/>
       <use xlink:href="#DejaVuSans-6f" x="115.076172"/>
       <use xlink:href="#DejaVuSans-74" x="176.257812"/>
       <use xlink:href="#DejaVuSans-68" x="215.466797"/>
       <use xlink:href="#DejaVuSans-69" x="278.845703"/>
       <use xlink:href="#DejaVuSans-6c" x="306.628906"/>
       <use xlink:href="#DejaVuSans-6c" x="334.412109"/>
      </g>
     </g>
    </g>
    <g id="xtick_9">
     <g id="line2d_9">
      <g>
       <use xlink:href="#m8d9823c835" x="279.128848" y="315" style="stroke: #000000; stroke-width: 0.8"/>
      </g>
     </g>
     <g id="text_9">
      <!-- Pasadena -->
      <g transform="translate(255.122598 329.598437) scale(0.1 -0.1)">
       <defs>
        <path id="DejaVuSans-50" d="M 1259 4147 
L 1259 2394 
L 2053 2394 
Q 2494 2394 2734 2622 
Q 2975 2850 2975 3272 
Q 2975 3691 2734 3919 
Q 2494 4147 2053 4147 
L 1259 4147 
z
M 628 4666 
L 2053 4666 
Q 2838 4666 3239 4311 
Q 3641 3956 3641 3272 
Q 3641 2581 3239 2228 
Q 2838 1875 2053 1875 
L 1259 1875 
L 1259 0 
L 628 0 
L 628 4666 
z
" transform="scale(0.015625)"/>
       </defs>
       <use xlink:href="#DejaVuSans-50"/>
       <use xlink:href="#DejaVuSans-61" x="55.802734"/>
       <use xlink:href="#DejaVuSans-73" x="117.082031"/>
       <use xlink:href="#DejaVuSans-61" x="169.181641"/>
       <use xlink:href="#DejaVuSans-64" x="230.460938"/>
       <use xlink:href="#DejaVuSans-65" x="293.9375"/>
       <use xlink:href="#DejaVuSans-6e" x="355.460938"/>
       <use xlink:href="#DejaVuSans-61" x="418.839844"/>
      </g>
     </g>
    </g>
    <g id="xtick_10">
     <g id="line2d_10">
      <g>
       <use xlink:href="#m8d9823c835" x="299.100215" y="315" style="stroke: #000000; stroke-width: 0.8"/>
      </g>
     </g>
     <g id="text_10">
      <!-- Pomona -->
      <g transform="translate(279.044746 329.598437) scale(0.1 -0.1)">
       <use xlink:href="#DejaVuSans-50"/>
       <use xlink:href="#DejaVuSans-6f" x="56.677734"/>
       <use xlink:href="#DejaVuSans-6d" x="117.859375"/>
       <use xlink:href="#DejaVuSans-6f" x="215.271484"/>
       <use xlink:href="#DejaVuSans-6e" x="276.453125"/>
       <use xlink:href="#DejaVuSans-61" x="339.832031"/>
      </g>
     </g>
    </g>
    <g id="xtick_11">
     <g id="line2d_11">
      <g>
       <use xlink:href="#m8d9823c835" x="319.071582" y="315" style="stroke: #000000; stroke-width: 0.8"/>
      </g>
     </g>
     <g id="text_11">
      <!-- Central -->
      <g transform="translate(300.866113 329.598437) scale(0.1 -0.1)">
       <defs>
        <path id="DejaVuSans-43" d="M 4122 4306 
L 4122 3641 
Q 3803 3938 3442 4084 
Q 3081 4231 2675 4231 
Q 1875 4231 1450 3742 
Q 1025 3253 1025 2328 
Q 1025 1406 1450 917 
Q 1875 428 2675 428 
Q 3081 428 3442 575 
Q 3803 722 4122 1019 
L 4122 359 
Q 3791 134 3420 21 
Q 3050 -91 2638 -91 
Q 1578 -91 968 557 
Q 359 1206 359 2328 
Q 359 3453 968 4101 
Q 1578 4750 2638 4750 
Q 3056 4750 3426 4639 
Q 3797 4528 4122 4306 
z
" transform="scale(0.015625)"/>
       </defs>
       <use xlink:href="#DejaVuSans-43"/>
       <use xlink:href="#DejaVuSans-65" x="69.824219"/>
       <use xlink:href="#DejaVuSans-6e" x="131.347656"/>
       <use xlink:href="#DejaVuSans-74" x="194.726562"/>
       <use xlink:href="#DejaVuSans-72" x="233.935547"/>
       <use xlink:href="#DejaVuSans-61" x="275.048828"/>
       <use xlink:href="#DejaVuSans-6c" x="336.328125"/>
      </g>
     </g>
    </g>
    <g id="xtick_12">
     <g id="line2d_12">
      <g>
       <use xlink:href="#m8d9823c835" x="339.042949" y="315" style="stroke: #000000; stroke-width: 0.8"/>
      </g>
     </g>
     <g id="text_12">
      <!-- Hollywood-Wilshire -->
      <g transform="translate(291.708574 329.598437) scale(0.1 -0.1)">
       <defs>
        <path id="DejaVuSans-48" d="M 628 4666 
L 1259 4666 
L 1259 2753 
L 3553 2753 
L 3553 4666 
L 4184 4666 
L 4184 0 
L 3553 0 
L 3553 2222 
L 1259 2222 
L 1259 0 
L 628 0 
L 628 4666 
z
" transform="scale(0.015625)"/>
        <path id="DejaVuSans-77" d="M 269 3500 
L 844 3500 
L 1563 769 
L 2278 3500 
L 2956 3500 
L 3675 769 
L 4391 3500 
L 4966 3500 
L 4050 0 
L 3372 0 
L 2619 2869 
L 1863 0 
L 1184 0 
L 269 3500 
z
" transform="scale(0.015625)"/>
        <path id="DejaVuSans-2d" d="M 313 2009 
L 1997 2009 
L 1997 1497 
L 313 1497 
L 313 2009 
z
" transform="scale(0.015625)"/>
       </defs>
       <use xlink:href="#DejaVuSans-48"/>
       <use xlink:href="#DejaVuSans-6f" x="75.195312"/>
       <use xlink:href="#DejaVuSans-6c" x="136.376953"/>
       <use xlink:href="#DejaVuSans-6c" x="164.160156"/>
       <use xlink:href="#DejaVuSans-79" x="191.943359"/>
       <use xlink:href="#DejaVuSans-77" x="251.123047"/>
       <use xlink:href="#DejaVuSans-6f" x="332.910156"/>
       <use xlink:href="#DejaVuSans-6f" x="394.091797"/>
       <use xlink:href="#DejaVuSans-64" x="455.273438"/>
       <use xlink:href="#DejaVuSans-2d" x="518.75"/>
       <use xlink:href="#DejaVuSans-57" x="550.833984"/>
       <use xlink:href="#DejaVuSans-69" x="647.460938"/>
       <use xlink:href="#DejaVuSans-6c" x="675.244141"/>
       <use xlink:href="#DejaVuSans-73" x="703.027344"/>
       <use xlink:href="#DejaVuSans-68" x="755.126953"/>
       <use xlink:href="#DejaVuSans-69" x="818.505859"/>
       <use xlink:href="#DejaVuSans-72" x="846.289062"/>
       <use xlink:href="#DejaVuSans-65" x="885.152344"/>
      </g>
     </g>
    </g>
    <g id="xtick_13">
     <g id="line2d_13">
      <g>
       <use xlink:href="#m8d9823c835" x="359.014316" y="315" style="stroke: #000000; stroke-width: 0.8"/>
      </g>
     </g>
     <g id="text_13">
      <!-- Northeast -->
      <g transform="translate(334.324473 329.598437) scale(0.1 -0.1)">
       <defs>
        <path id="DejaVuSans-4e" d="M 628 4666 
L 1478 4666 
L 3547 763 
L 3547 4666 
L 4159 4666 
L 4159 0 
L 3309 0 
L 1241 3903 
L 1241 0 
L 628 0 
L 628 4666 
z
" transform="scale(0.015625)"/>
       </defs>
       <use xlink:href="#DejaVuSans-4e"/>
       <use xlink:href="#DejaVuSans-6f" x="74.804688"/>
       <use xlink:href="#DejaVuSans-72" x="135.986328"/>
       <use xlink:href="#DejaVuSans-74" x="177.099609"/>
       <use xlink:href="#DejaVuSans-68" x="216.308594"/>
       <use xlink:href="#DejaVuSans-65" x="279.6875"/>
       <use xlink:href="#DejaVuSans-61" x="341.210938"/>
       <use xlink:href="#DejaVuSans-73" x="402.490234"/>
       <use xlink:href="#DejaVuSans-74" x="454.589844"/>
      </g>
     </g>
    </g>
    <g id="xtick_14">
     <g id="line2d_14">
      <g>
       <use xlink:href="#m8d9823c835" x="378.985684" y="315" style="stroke: #000000; stroke-width: 0.8"/>
      </g>
     </g>
     <g id="text_14">
      <!-- West -->
      <g transform="translate(366.694277 329.598437) scale(0.1 -0.1)">
       <use xlink:href="#DejaVuSans-57"/>
       <use xlink:href="#DejaVuSans-65" x="93.001953"/>
       <use xlink:href="#DejaVuSans-73" x="154.525391"/>
       <use xlink:href="#DejaVuSans-74" x="206.625"/>
      </g>
     </g>
    </g>
    <g id="xtick_15">
     <g id="line2d_15">
      <g>
       <use xlink:href="#m8d9823c835" x="398.957051" y="315" style="stroke: #000000; stroke-width: 0.8"/>
      </g>
     </g>
     <g id="text_15">
      <!-- Compton -->
      <g transform="translate(376.173457 329.598437) scale(0.1 -0.1)">
       <use xlink:href="#DejaVuSans-43"/>
       <use xlink:href="#DejaVuSans-6f" x="69.824219"/>
       <use xlink:href="#DejaVuSans-6d" x="131.005859"/>
       <use xlink:href="#DejaVuSans-70" x="228.417969"/>
       <use xlink:href="#DejaVuSans-74" x="291.894531"/>
       <use xlink:href="#DejaVuSans-6f" x="331.103516"/>
       <use xlink:href="#DejaVuSans-6e" x="392.285156"/>
      </g>
     </g>
    </g>
    <g id="xtick_16">
     <g id="line2d_16">
      <g>
       <use xlink:href="#m8d9823c835" x="418.928418" y="315" style="stroke: #000000; stroke-width: 0.8"/>
      </g>
     </g>
     <g id="text_16">
      <!-- South -->
      <g transform="translate(404.397168 329.598437) scale(0.1 -0.1)">
       <defs>
        <path id="DejaVuSans-75" d="M 544 1381 
L 544 3500 
L 1119 3500 
L 1119 1403 
Q 1119 906 1312 657 
Q 1506 409 1894 409 
Q 2359 409 2629 706 
Q 2900 1003 2900 1516 
L 2900 3500 
L 3475 3500 
L 3475 0 
L 2900 0 
L 2900 538 
Q 2691 219 2414 64 
Q 2138 -91 1772 -91 
Q 1169 -91 856 284 
Q 544 659 544 1381 
z
M 1991 3584 
L 1991 3584 
z
" transform="scale(0.015625)"/>
       </defs>
       <use xlink:href="#DejaVuSans-53"/>
       <use xlink:href="#DejaVuSans-6f" x="63.476562"/>
       <use xlink:href="#DejaVuSans-75" x="124.658203"/>
       <use xlink:href="#DejaVuSans-74" x="188.037109"/>
       <use xlink:href="#DejaVuSans-68" x="227.246094"/>
      </g>
     </g>
    </g>
    <g id="xtick_17">
     <g id="line2d_17">
      <g>
       <use xlink:href="#m8d9823c835" x="438.899785" y="315" style="stroke: #000000; stroke-width: 0.8"/>
      </g>
     </g>
     <g id="text_17">
      <!-- Southeast -->
      <g transform="translate(413.663067 329.598437) scale(0.1 -0.1)">
       <use xlink:href="#DejaVuSans-53"/>
       <use xlink:href="#DejaVuSans-6f" x="63.476562"/>
       <use xlink:href="#DejaVuSans-75" x="124.658203"/>
       <use xlink:href="#DejaVuSans-74" x="188.037109"/>
       <use xlink:href="#DejaVuSans-68" x="227.246094"/>
       <use xlink:href="#DejaVuSans-65" x="290.625"/>
       <use xlink:href="#DejaVuSans-61" x="352.148438"/>
       <use xlink:href="#DejaVuSans-73" x="413.427734"/>
       <use xlink:href="#DejaVuSans-74" x="465.527344"/>
      </g>
     </g>
    </g>
    <g id="xtick_18">
     <g id="line2d_18">
      <g>
       <use xlink:href="#m8d9823c835" x="458.871152" y="315" style="stroke: #000000; stroke-width: 0.8"/>
      </g>
     </g>
     <g id="text_18">
      <!-- Southwest -->
      <g transform="translate(432.609434 329.598437) scale(0.1 -0.1)">
       <use xlink:href="#DejaVuSans-53"/>
       <use xlink:href="#DejaVuSans-6f" x="63.476562"/>
       <use xlink:href="#DejaVuSans-75" x="124.658203"/>
       <use xlink:href="#DejaVuSans-74" x="188.037109"/>
       <use xlink:href="#DejaVuSans-68" x="227.246094"/>
       <use xlink:href="#DejaVuSans-77" x="290.625"/>
       <use xlink:href="#DejaVuSans-65" x="372.412109"/>
       <use xlink:href="#DejaVuSans-73" x="433.935547"/>
       <use xlink:href="#DejaVuSans-74" x="486.035156"/>
      </g>
     </g>
    </g>
    <g id="xtick_19">
     <g id="line2d_19">
      <g>
       <use xlink:href="#m8d9823c835" x="478.84252" y="315" style="stroke: #000000; stroke-width: 0.8"/>
      </g>
     </g>
     <g id="text_19">
      <!-- Bellflower -->
      <g transform="translate(454.127676 329.598437) scale(0.1 -0.1)">
       <defs>
        <path id="DejaVuSans-42" d="M 1259 2228 
L 1259 519 
L 2272 519 
Q 2781 519 3026 730 
Q 3272 941 3272 1375 
Q 3272 1813 3026 2020 
Q 2781 2228 2272 2228 
L 1259 2228 
z
M 1259 4147 
L 1259 2741 
L 2194 2741 
Q 2656 2741 2882 2914 
Q 3109 3088 3109 3444 
Q 3109 3797 2882 3972 
Q 2656 4147 2194 4147 
L 1259 4147 
z
M 628 4666 
L 2241 4666 
Q 2963 4666 3353 4366 
Q 3744 4066 3744 3513 
Q 3744 3084 3544 2831 
Q 3344 2578 2956 2516 
Q 3422 2416 3680 2098 
Q 3938 1781 3938 1306 
Q 3938 681 3513 340 
Q 3088 0 2303 0 
L 628 0 
L 628 4666 
z
" transform="scale(0.015625)"/>
        <path id="DejaVuSans-66" d="M 2375 4863 
L 2375 4384 
L 1825 4384 
Q 1516 4384 1395 4259 
Q 1275 4134 1275 3809 
L 1275 3500 
L 2222 3500 
L 2222 3053 
L 1275 3053 
L 1275 0 
L 697 0 
L 697 3053 
L 147 3053 
L 147 3500 
L 697 3500 
L 697 3744 
Q 697 4328 969 4595 
Q 1241 4863 1831 4863 
L 2375 4863 
z
" transform="scale(0.015625)"/>
       </defs>
       <use xlink:href="#DejaVuSans-42"/>
       <use xlink:href="#DejaVuSans-65" x="68.603516"/>
       <use xlink:href="#DejaVuSans-6c" x="130.126953"/>
       <use xlink:href="#DejaVuSans-6c" x="157.910156"/>
       <use xlink:href="#DejaVuSans-66" x="185.693359"/>
       <use xlink:href="#DejaVuSans-6c" x="220.898438"/>
       <use xlink:href="#DejaVuSans-6f" x="248.681641"/>
       <use xlink:href="#DejaVuSans-77" x="309.863281"/>
       <use xlink:href="#DejaVuSans-65" x="391.650391"/>
       <use xlink:href="#DejaVuSans-72" x="453.173828"/>
      </g>
     </g>
    </g>
    <g id="xtick_20">
     <g id="line2d_20">
      <g>
       <use xlink:href="#m8d9823c835" x="498.813887" y="315" style="stroke: #000000; stroke-width: 0.8"/>
      </g>
     </g>
     <g id="text_20">
      <!-- East Los Angeles -->
      <g transform="translate(456.574824 329.598437) scale(0.1 -0.1)">
       <defs>
        <path id="DejaVuSans-4c" d="M 628 4666 
L 1259 4666 
L 1259 531 
L 3531 531 
L 3531 0 
L 628 0 
L 628 4666 
z
" transform="scale(0.015625)"/>
        <path id="DejaVuSans-67" d="M 2906 1791 
Q 2906 2416 2648 2759 
Q 2391 3103 1925 3103 
Q 1463 3103 1205 2759 
Q 947 2416 947 1791 
Q 947 1169 1205 825 
Q 1463 481 1925 481 
Q 2391 481 2648 825 
Q 2906 1169 2906 1791 
z
M 3481 434 
Q 3481 -459 3084 -895 
Q 2688 -1331 1869 -1331 
Q 1566 -1331 1297 -1286 
Q 1028 -1241 775 -1147 
L 775 -588 
Q 1028 -725 1275 -790 
Q 1522 -856 1778 -856 
Q 2344 -856 2625 -561 
Q 2906 -266 2906 331 
L 2906 616 
Q 2728 306 2450 153 
Q 2172 0 1784 0 
Q 1141 0 747 490 
Q 353 981 353 1791 
Q 353 2603 747 3093 
Q 1141 3584 1784 3584 
Q 2172 3584 2450 3431 
Q 2728 3278 2906 2969 
L 2906 3500 
L 3481 3500 
L 3481 434 
z
" transform="scale(0.015625)"/>
       </defs>
       <use xlink:href="#DejaVuSans-45"/>
       <use xlink:href="#DejaVuSans-61" x="63.183594"/>
       <use xlink:href="#DejaVuSans-73" x="124.462891"/>
       <use xlink:href="#DejaVuSans-74" x="176.5625"/>
       <use xlink:href="#DejaVuSans-20" x="215.771484"/>
       <use xlink:href="#DejaVuSans-4c" x="247.558594"/>
       <use xlink:href="#DejaVuSans-6f" x="301.521484"/>
       <use xlink:href="#DejaVuSans-73" x="362.703125"/>
       <use xlink:href="#DejaVuSans-20" x="414.802734"/>
       <use xlink:href="#DejaVuSans-41" x="446.589844"/>
       <use xlink:href="#DejaVuSans-6e" x="514.998047"/>
       <use xlink:href="#DejaVuSans-67" x="578.376953"/>
       <use xlink:href="#DejaVuSans-65" x="641.853516"/>
       <use xlink:href="#DejaVuSans-6c" x="703.376953"/>
       <use xlink:href="#DejaVuSans-65" x="731.160156"/>
       <use xlink:href="#DejaVuSans-73" x="792.683594"/>
      </g>
     </g>
    </g>
    <g id="xtick_21">
     <g id="line2d_21">
      <g>
       <use xlink:href="#m8d9823c835" x="518.785254" y="315" style="stroke: #000000; stroke-width: 0.8"/>
      </g>
     </g>
     <g id="text_21">
      <!-- San Antonio -->
      <g transform="translate(488.563379 329.598437) scale(0.1 -0.1)">
       <use xlink:href="#DejaVuSans-53"/>
       <use xlink:href="#DejaVuSans-61" x="63.476562"/>
       <use xlink:href="#DejaVuSans-6e" x="124.755859"/>
       <use xlink:href="#DejaVuSans-20" x="188.134766"/>
       <use xlink:href="#DejaVuSans-41" x="219.921875"/>
       <use xlink:href="#DejaVuSans-6e" x="288.330078"/>
       <use xlink:href="#DejaVuSans-74" x="351.708984"/>
       <use xlink:href="#DejaVuSans-6f" x="390.917969"/>
       <use xlink:href="#DejaVuSans-6e" x="452.099609"/>
       <use xlink:href="#DejaVuSans-69" x="515.478516"/>
       <use xlink:href="#DejaVuSans-6f" x="543.261719"/>
      </g>
     </g>
    </g>
    <g id="xtick_22">
     <g id="line2d_22">
      <g>
       <use xlink:href="#m8d9823c835" x="538.756621" y="315" style="stroke: #000000; stroke-width: 0.8"/>
      </g>
     </g>
     <g id="text_22">
      <!-- Whittier -->
      <g transform="translate(518.813653 329.598437) scale(0.1 -0.1)">
       <use xlink:href="#DejaVuSans-57"/>
       <use xlink:href="#DejaVuSans-68" x="98.876953"/>
       <use xlink:href="#DejaVuSans-69" x="162.255859"/>
       <use xlink:href="#DejaVuSans-74" x="190.039062"/>
       <use xlink:href="#DejaVuSans-74" x="229.248047"/>
       <use xlink:href="#DejaVuSans-69" x="268.457031"/>
       <use xlink:href="#DejaVuSans-65" x="296.240234"/>
       <use xlink:href="#DejaVuSans-72" x="357.763672"/>
      </g>
     </g>
    </g>
    <g id="xtick_23">
     <g id="line2d_23">
      <g>
       <use xlink:href="#m8d9823c835" x="558.727989" y="315" style="stroke: #000000; stroke-width: 0.8"/>
      </g>
     </g>
     <g id="text_23">
      <!-- Harbor -->
      <g transform="translate(541.559239 329.598437) scale(0.1 -0.1)">
       <use xlink:href="#DejaVuSans-48"/>
       <use xlink:href="#DejaVuSans-61" x="75.195312"/>
       <use xlink:href="#DejaVuSans-72" x="136.474609"/>
       <use xlink:href="#DejaVuSans-62" x="177.587891"/>
       <use xlink:href="#DejaVuSans-6f" x="241.064453"/>
       <use xlink:href="#DejaVuSans-72" x="302.246094"/>
      </g>
     </g>
    </g>
    <g id="xtick_24">
     <g id="line2d_24">
      <g>
       <use xlink:href="#m8d9823c835" x="578.699356" y="315" style="stroke: #000000; stroke-width: 0.8"/>
      </g>
     </g>
     <g id="text_24">
      <!-- Inglewood -->
      <g transform="translate(553.033731 329.598437) scale(0.1 -0.1)">
       <defs>
        <path id="DejaVuSans-49" d="M 628 4666 
L 1259 4666 
L 1259 0 
L 628 0 
L 628 4666 
z
" transform="scale(0.015625)"/>
       </defs>
       <use xlink:href="#DejaVuSans-49"/>
       <use xlink:href="#DejaVuSans-6e" x="29.492188"/>
       <use xlink:href="#DejaVuSans-67" x="92.871094"/>
       <use xlink:href="#DejaVuSans-6c" x="156.347656"/>
       <use xlink:href="#DejaVuSans-65" x="184.130859"/>
       <use xlink:href="#DejaVuSans-77" x="245.654297"/>
       <use xlink:href="#DejaVuSans-6f" x="327.441406"/>
       <use xlink:href="#DejaVuSans-6f" x="388.623047"/>
       <use xlink:href="#DejaVuSans-64" x="449.804688"/>
      </g>
     </g>
    </g>
    <g id="xtick_25">
     <g id="line2d_25">
      <g>
       <use xlink:href="#m8d9823c835" x="598.670723" y="315" style="stroke: #000000; stroke-width: 0.8"/>
      </g>
     </g>
     <g id="text_25">
      <!-- Long Beach -->
      <g transform="translate(569.491817 329.598437) scale(0.1 -0.1)">
       <defs>
        <path id="DejaVuSans-63" d="M 3122 3366 
L 3122 2828 
Q 2878 2963 2633 3030 
Q 2388 3097 2138 3097 
Q 1578 3097 1268 2742 
Q 959 2388 959 1747 
Q 959 1106 1268 751 
Q 1578 397 2138 397 
Q 2388 397 2633 464 
Q 2878 531 3122 666 
L 3122 134 
Q 2881 22 2623 -34 
Q 2366 -91 2075 -91 
Q 1284 -91 818 406 
Q 353 903 353 1747 
Q 353 2603 823 3093 
Q 1294 3584 2113 3584 
Q 2378 3584 2631 3529 
Q 2884 3475 3122 3366 
z
" transform="scale(0.015625)"/>
       </defs>
       <use xlink:href="#DejaVuSans-4c"/>
       <use xlink:href="#DejaVuSans-6f" x="53.962891"/>
       <use xlink:href="#DejaVuSans-6e" x="115.144531"/>
       <use xlink:href="#DejaVuSans-67" x="178.523438"/>
       <use xlink:href="#DejaVuSans-20" x="242"/>
       <use xlink:href="#DejaVuSans-42" x="273.787109"/>
       <use xlink:href="#DejaVuSans-65" x="342.390625"/>
       <use xlink:href="#DejaVuSans-61" x="403.914062"/>
       <use xlink:href="#DejaVuSans-63" x="465.193359"/>
       <use xlink:href="#DejaVuSans-68" x="520.173828"/>
      </g>
     </g>
    </g>
    <g id="xtick_26">
     <g id="line2d_26">
      <g>
       <use xlink:href="#m8d9823c835" x="618.64209" y="315" style="stroke: #000000; stroke-width: 0.8"/>
      </g>
     </g>
     <g id="text_26">
      <!-- Torrance -->
      <g transform="translate(597.296778 329.598437) scale(0.1 -0.1)">
       <defs>
        <path id="DejaVuSans-54" d="M -19 4666 
L 3928 4666 
L 3928 4134 
L 2272 4134 
L 2272 0 
L 1638 0 
L 1638 4134 
L -19 4134 
L -19 4666 
z
" transform="scale(0.015625)"/>
       </defs>
       <use xlink:href="#DejaVuSans-54"/>
       <use xlink:href="#DejaVuSans-6f" x="44.083984"/>
       <use xlink:href="#DejaVuSans-72" x="105.265625"/>
       <use xlink:href="#DejaVuSans-72" x="144.628906"/>
       <use xlink:href="#DejaVuSans-61" x="185.742188"/>
       <use xlink:href="#DejaVuSans-6e" x="247.021484"/>
       <use xlink:href="#DejaVuSans-63" x="310.400391"/>
       <use xlink:href="#DejaVuSans-65" x="365.380859"/>
      </g>
     </g>
    </g>
    <g id="text_27">
     <!-- Courses offered -->
     <g transform="translate(329.5 343.276563) scale(0.1 -0.1)">
      <use xlink:href="#DejaVuSans-43"/>
      <use xlink:href="#DejaVuSans-6f" x="69.824219"/>
      <use xlink:href="#DejaVuSans-75" x="131.005859"/>
      <use xlink:href="#DejaVuSans-72" x="194.384766"/>
      <use xlink:href="#DejaVuSans-73" x="235.498047"/>
      <use xlink:href="#DejaVuSans-65" x="287.597656"/>
      <use xlink:href="#DejaVuSans-73" x="349.121094"/>
      <use xlink:href="#DejaVuSans-20" x="401.220703"/>
      <use xlink:href="#DejaVuSans-6f" x="433.007812"/>
      <use xlink:href="#DejaVuSans-66" x="494.189453"/>
      <use xlink:href="#DejaVuSans-66" x="529.394531"/>
      <use xlink:href="#DejaVuSans-65" x="564.599609"/>
      <use xlink:href="#DejaVuSans-72" x="626.123047"/>
      <use xlink:href="#DejaVuSans-65" x="664.986328"/>
      <use xlink:href="#DejaVuSans-64" x="726.509766"/>
     </g>
    </g>
   </g>
   <g id="matplotlib.axis_2">
    <g id="ytick_1">
     <g id="line2d_27">
      <defs>
       <path id="mdb0df5a819" d="M 0 0 
L -3.5 0 
" style="stroke: #000000; stroke-width: 0.8"/>
      </defs>
      <g>
       <use xlink:href="#mdb0df5a819" x="90" y="315" style="stroke: #000000; stroke-width: 0.8"/>
      </g>
     </g>
     <g id="text_28">
      <!-- 0.0 -->
      <g transform="translate(67.096875 318.799219) scale(0.1 -0.1)">
       <defs>
        <path id="DejaVuSans-30" d="M 2034 4250 
Q 1547 4250 1301 3770 
Q 1056 3291 1056 2328 
Q 1056 1369 1301 889 
Q 1547 409 2034 409 
Q 2525 409 2770 889 
Q 3016 1369 3016 2328 
Q 3016 3291 2770 3770 
Q 2525 4250 2034 4250 
z
M 2034 4750 
Q 2819 4750 3233 4129 
Q 3647 3509 3647 2328 
Q 3647 1150 3233 529 
Q 2819 -91 2034 -91 
Q 1250 -91 836 529 
Q 422 1150 422 2328 
Q 422 3509 836 4129 
Q 1250 4750 2034 4750 
z
" transform="scale(0.015625)"/>
        <path id="DejaVuSans-2e" d="M 684 794 
L 1344 794 
L 1344 0 
L 684 0 
L 684 794 
z
" transform="scale(0.015625)"/>
       </defs>
       <use xlink:href="#DejaVuSans-30"/>
       <use xlink:href="#DejaVuSans-2e" x="63.623047"/>
       <use xlink:href="#DejaVuSans-30" x="95.410156"/>
      </g>
     </g>
    </g>
    <g id="ytick_2">
     <g id="line2d_28">
      <g>
       <use xlink:href="#mdb0df5a819" x="90" y="262.786071" style="stroke: #000000; stroke-width: 0.8"/>
      </g>
     </g>
     <g id="text_29">
      <!-- 0.2 -->
      <g transform="translate(67.096875 266.58529) scale(0.1 -0.1)">
       <defs>
        <path id="DejaVuSans-32" d="M 1228 531 
L 3431 531 
L 3431 0 
L 469 0 
L 469 531 
Q 828 903 1448 1529 
Q 2069 2156 2228 2338 
Q 2531 2678 2651 2914 
Q 2772 3150 2772 3378 
Q 2772 3750 2511 3984 
Q 2250 4219 1831 4219 
Q 1534 4219 1204 4116 
Q 875 4013 500 3803 
L 500 4441 
Q 881 4594 1212 4672 
Q 1544 4750 1819 4750 
Q 2544 4750 2975 4387 
Q 3406 4025 3406 3419 
Q 3406 3131 3298 2873 
Q 3191 2616 2906 2266 
Q 2828 2175 2409 1742 
Q 1991 1309 1228 531 
z
" transform="scale(0.015625)"/>
       </defs>
       <use xlink:href="#DejaVuSans-30"/>
       <use xlink:href="#DejaVuSans-2e" x="63.623047"/>
       <use xlink:href="#DejaVuSans-32" x="95.410156"/>
      </g>
     </g>
    </g>
    <g id="ytick_3">
     <g id="line2d_29">
      <g>
       <use xlink:href="#mdb0df5a819" x="90" y="210.572143" style="stroke: #000000; stroke-width: 0.8"/>
      </g>
     </g>
     <g id="text_30">
      <!-- 0.4 -->
      <g transform="translate(67.096875 214.371361) scale(0.1 -0.1)">
       <defs>
        <path id="DejaVuSans-34" d="M 2419 4116 
L 825 1625 
L 2419 1625 
L 2419 4116 
z
M 2253 4666 
L 3047 4666 
L 3047 1625 
L 3713 1625 
L 3713 1100 
L 3047 1100 
L 3047 0 
L 2419 0 
L 2419 1100 
L 313 1100 
L 313 1709 
L 2253 4666 
z
" transform="scale(0.015625)"/>
       </defs>
       <use xlink:href="#DejaVuSans-30"/>
       <use xlink:href="#DejaVuSans-2e" x="63.623047"/>
       <use xlink:href="#DejaVuSans-34" x="95.410156"/>
      </g>
     </g>
    </g>
    <g id="ytick_4">
     <g id="line2d_30">
      <g>
       <use xlink:href="#mdb0df5a819" x="90" y="158.358214" style="stroke: #000000; stroke-width: 0.8"/>
      </g>
     </g>
     <g id="text_31">
      <!-- 0.6 -->
      <g transform="translate(67.096875 162.157433) scale(0.1 -0.1)">
       <defs>
        <path id="DejaVuSans-36" d="M 2113 2584 
Q 1688 2584 1439 2293 
Q 1191 2003 1191 1497 
Q 1191 994 1439 701 
Q 1688 409 2113 409 
Q 2538 409 2786 701 
Q 3034 994 3034 1497 
Q 3034 2003 2786 2293 
Q 2538 2584 2113 2584 
z
M 3366 4563 
L 3366 3988 
Q 3128 4100 2886 4159 
Q 2644 4219 2406 4219 
Q 1781 4219 1451 3797 
Q 1122 3375 1075 2522 
Q 1259 2794 1537 2939 
Q 1816 3084 2150 3084 
Q 2853 3084 3261 2657 
Q 3669 2231 3669 1497 
Q 3669 778 3244 343 
Q 2819 -91 2113 -91 
Q 1303 -91 875 529 
Q 447 1150 447 2328 
Q 447 3434 972 4092 
Q 1497 4750 2381 4750 
Q 2619 4750 2861 4703 
Q 3103 4656 3366 4563 
z
" transform="scale(0.015625)"/>
       </defs>
       <use xlink:href="#DejaVuSans-30"/>
       <use xlink:href="#DejaVuSans-2e" x="63.623047"/>
       <use xlink:href="#DejaVuSans-36" x="95.410156"/>
      </g>
     </g>
    </g>
    <g id="ytick_5">
     <g id="line2d_31">
      <g>
       <use xlink:href="#mdb0df5a819" x="90" y="106.144285" style="stroke: #000000; stroke-width: 0.8"/>
      </g>
     </g>
     <g id="text_32">
      <!-- 0.8 -->
      <g transform="translate(67.096875 109.943504) scale(0.1 -0.1)">
       <defs>
        <path id="DejaVuSans-38" d="M 2034 2216 
Q 1584 2216 1326 1975 
Q 1069 1734 1069 1313 
Q 1069 891 1326 650 
Q 1584 409 2034 409 
Q 2484 409 2743 651 
Q 3003 894 3003 1313 
Q 3003 1734 2745 1975 
Q 2488 2216 2034 2216 
z
M 1403 2484 
Q 997 2584 770 2862 
Q 544 3141 544 3541 
Q 544 4100 942 4425 
Q 1341 4750 2034 4750 
Q 2731 4750 3128 4425 
Q 3525 4100 3525 3541 
Q 3525 3141 3298 2862 
Q 3072 2584 2669 2484 
Q 3125 2378 3379 2068 
Q 3634 1759 3634 1313 
Q 3634 634 3220 271 
Q 2806 -91 2034 -91 
Q 1263 -91 848 271 
Q 434 634 434 1313 
Q 434 1759 690 2068 
Q 947 2378 1403 2484 
z
M 1172 3481 
Q 1172 3119 1398 2916 
Q 1625 2713 2034 2713 
Q 2441 2713 2670 2916 
Q 2900 3119 2900 3481 
Q 2900 3844 2670 4047 
Q 2441 4250 2034 4250 
Q 1625 4250 1398 4047 
Q 1172 3844 1172 3481 
z
" transform="scale(0.015625)"/>
       </defs>
       <use xlink:href="#DejaVuSans-30"/>
       <use xlink:href="#DejaVuSans-2e" x="63.623047"/>
       <use xlink:href="#DejaVuSans-38" x="95.410156"/>
      </g>
     </g>
    </g>
    <g id="ytick_6">
     <g id="line2d_32">
      <g>
       <use xlink:href="#mdb0df5a819" x="90" y="53.930357" style="stroke: #000000; stroke-width: 0.8"/>
      </g>
     </g>
     <g id="text_33">
      <!-- 1.0 -->
      <g transform="translate(67.096875 57.729575) scale(0.1 -0.1)">
       <defs>
        <path id="DejaVuSans-31" d="M 794 531 
L 1825 531 
L 1825 4091 
L 703 3866 
L 703 4441 
L 1819 4666 
L 2450 4666 
L 2450 531 
L 3481 531 
L 3481 0 
L 794 0 
L 794 531 
z
" transform="scale(0.015625)"/>
       </defs>
       <use xlink:href="#DejaVuSans-31"/>
       <use xlink:href="#DejaVuSans-2e" x="63.623047"/>
       <use xlink:href="#DejaVuSans-30" x="95.410156"/>
      </g>
     </g>
    </g>
    <g id="text_34">
     <!-- No. of students enrolled -->
     <g transform="translate(61.017187 238.982812) rotate(-90) scale(0.1 -0.1)">
      <use xlink:href="#DejaVuSans-4e"/>
      <use xlink:href="#DejaVuSans-6f" x="74.804688"/>
      <use xlink:href="#DejaVuSans-2e" x="134.236328"/>
      <use xlink:href="#DejaVuSans-20" x="166.023438"/>
      <use xlink:href="#DejaVuSans-6f" x="197.810547"/>
      <use xlink:href="#DejaVuSans-66" x="258.992188"/>
      <use xlink:href="#DejaVuSans-20" x="294.197266"/>
      <use xlink:href="#DejaVuSans-73" x="325.984375"/>
      <use xlink:href="#DejaVuSans-74" x="378.083984"/>
      <use xlink:href="#DejaVuSans-75" x="417.292969"/>
      <use xlink:href="#DejaVuSans-64" x="480.671875"/>
      <use xlink:href="#DejaVuSans-65" x="544.148438"/>
      <use xlink:href="#DejaVuSans-6e" x="605.671875"/>
      <use xlink:href="#DejaVuSans-74" x="669.050781"/>
      <use xlink:href="#DejaVuSans-73" x="708.259766"/>
      <use xlink:href="#DejaVuSans-20" x="760.359375"/>
      <use xlink:href="#DejaVuSans-65" x="792.146484"/>
      <use xlink:href="#DejaVuSans-6e" x="853.669922"/>
      <use xlink:href="#DejaVuSans-72" x="917.048828"/>
      <use xlink:href="#DejaVuSans-6f" x="955.912109"/>
      <use xlink:href="#DejaVuSans-6c" x="1017.09375"/>
      <use xlink:href="#DejaVuSans-6c" x="1044.876953"/>
      <use xlink:href="#DejaVuSans-65" x="1072.660156"/>
      <use xlink:href="#DejaVuSans-64" x="1134.183594"/>
     </g>
    </g>
   </g>
   <g id="patch_29">
    <path d="M 90 315 
L 90 43.2 
" style="fill: none; stroke: #000000; stroke-width: 0.8; stroke-linejoin: miter; stroke-linecap: square"/>
   </g>
   <g id="patch_30">
    <path d="M 648 315 
L 648 43.2 
" style="fill: none; stroke: #000000; stroke-width: 0.8; stroke-linejoin: miter; stroke-linecap: square"/>
   </g>
   <g id="patch_31">
    <path d="M 90 315 
L 648 315 
" style="fill: none; stroke: #000000; stroke-width: 0.8; stroke-linejoin: miter; stroke-linecap: square"/>
   </g>
   <g id="patch_32">
    <path d="M 90 43.2 
L 648 43.2 
" style="fill: none; stroke: #000000; stroke-width: 0.8; stroke-linejoin: miter; stroke-linecap: square"/>
   </g>
   <g id="text_35">
    <!-- Students enrolled in different courses -->
    <g transform="translate(256.073438 37.2) scale(0.12 -0.12)">
     <use xlink:href="#DejaVuSans-53"/>
     <use xlink:href="#DejaVuSans-74" x="63.476562"/>
     <use xlink:href="#DejaVuSans-75" x="102.685547"/>
     <use xlink:href="#DejaVuSans-64" x="166.064453"/>
     <use xlink:href="#DejaVuSans-65" x="229.541016"/>
     <use xlink:href="#DejaVuSans-6e" x="291.064453"/>
     <use xlink:href="#DejaVuSans-74" x="354.443359"/>
     <use xlink:href="#DejaVuSans-73" x="393.652344"/>
     <use xlink:href="#DejaVuSans-20" x="445.751953"/>
     <use xlink:href="#DejaVuSans-65" x="477.539062"/>
     <use xlink:href="#DejaVuSans-6e" x="539.0625"/>
     <use xlink:href="#DejaVuSans-72" x="602.441406"/>
     <use xlink:href="#DejaVuSans-6f" x="641.304688"/>
     <use xlink:href="#DejaVuSans-6c" x="702.486328"/>
     <use xlink:href="#DejaVuSans-6c" x="730.269531"/>
     <use xlink:href="#DejaVuSans-65" x="758.052734"/>
     <use xlink:href="#DejaVuSans-64" x="819.576172"/>
     <use xlink:href="#DejaVuSans-20" x="883.052734"/>
     <use xlink:href="#DejaVuSans-69" x="914.839844"/>
     <use xlink:href="#DejaVuSans-6e" x="942.623047"/>
     <use xlink:href="#DejaVuSans-20" x="1006.001953"/>
     <use xlink:href="#DejaVuSans-64" x="1037.789062"/>
     <use xlink:href="#DejaVuSans-69" x="1101.265625"/>
     <use xlink:href="#DejaVuSans-66" x="1129.048828"/>
     <use xlink:href="#DejaVuSans-66" x="1164.253906"/>
     <use xlink:href="#DejaVuSans-65" x="1199.458984"/>
     <use xlink:href="#DejaVuSans-72" x="1260.982422"/>
     <use xlink:href="#DejaVuSans-65" x="1299.845703"/>
     <use xlink:href="#DejaVuSans-6e" x="1361.369141"/>
     <use xlink:href="#DejaVuSans-74" x="1424.748047"/>
     <use xlink:href="#DejaVuSans-20" x="1463.957031"/>
     <use xlink:href="#DejaVuSans-63" x="1495.744141"/>
     <use xlink:href="#DejaVuSans-6f" x="1550.724609"/>
     <use xlink:href="#DejaVuSans-75" x="1611.90625"/>
     <use xlink:href="#DejaVuSans-72" x="1675.285156"/>
     <use xlink:href="#DejaVuSans-73" x="1716.398438"/>
     <use xlink:href="#DejaVuSans-65" x="1768.498047"/>
     <use xlink:href="#DejaVuSans-73" x="1830.021484"/>
    </g>
   </g>
  </g>
 </g>
 <defs>
  <clipPath id="pc9a2602203">
   <rect x="90" y="43.2" width="558" height="271.8"/>
  </clipPath>
 </defs>
</svg>
